<svg width="147" height="44" viewBox="0 0 147 44" fill="none" xmlns="http://www.w3.org/2000/svg">
<rect x="0.25" y="0.25" width="42.5" height="43.1471" rx="6.25" stroke="#393939" stroke-opacity="0.35" stroke-width="0.5"/>
<path d="M30.2386 17.2108C30.2525 17.412 30.2525 17.6132 30.2525 17.8144C30.2525 23.9503 25.7157 31.0204 17.4239 31.0204C14.8693 31.0204 12.4962 30.2587 10.5 28.9367C10.863 28.9798 11.2119 28.9942 11.5888 28.9942C13.6967 28.9942 15.637 28.2614 17.1865 27.0112C15.2043 26.968 13.5431 25.6316 12.9708 23.7923C13.25 23.8354 13.5292 23.8641 13.8223 23.8641C14.2272 23.8641 14.632 23.8066 15.0089 23.7061C12.9429 23.2749 11.3934 21.4069 11.3934 19.1508V19.0933C11.9936 19.4382 12.6916 19.6537 13.4314 19.6825C12.2169 18.849 11.4213 17.4264 11.4213 15.8169C11.4213 14.9547 11.6446 14.1644 12.0355 13.4746C14.255 16.2911 17.5913 18.1305 21.3324 18.3317C21.2626 17.9868 21.2207 17.6276 21.2207 17.2683C21.2207 14.7104 23.2309 12.6268 25.7296 12.6268C27.0278 12.6268 28.2004 13.1873 29.024 14.0926C30.043 13.8914 31.0202 13.5034 31.8857 12.9717C31.5506 14.0495 30.8387 14.9548 29.9035 15.5295C30.8109 15.429 31.6903 15.1703 32.4999 14.8111C31.8858 15.7307 31.118 16.5498 30.2386 17.2108Z" fill="#393939"/>
<rect x="52.25" y="0.25" width="42.5" height="43.1471" rx="6.25" stroke="#393939" stroke-opacity="0.35" stroke-width="0.5"/>
<path d="M73.5046 16.7373C70.7718 16.7373 68.5675 19.0064 68.5675 21.8196C68.5675 24.6328 70.7718 26.9019 73.5046 26.9019C76.2374 26.9019 78.4417 24.6328 78.4417 21.8196C78.4417 19.0064 76.2374 16.7373 73.5046 16.7373ZM73.5046 25.1238C71.7386 25.1238 70.2948 23.642 70.2948 21.8196C70.2948 19.9972 71.7343 18.5154 73.5046 18.5154C75.2749 18.5154 76.7144 19.9972 76.7144 21.8196C76.7144 23.642 75.2706 25.1238 73.5046 25.1238ZM79.7952 16.5294C79.7952 17.1885 79.2796 17.7148 78.6437 17.7148C78.0034 17.7148 77.4921 17.184 77.4921 16.5294C77.4921 15.8748 78.0077 15.344 78.6437 15.344C79.2796 15.344 79.7952 15.8748 79.7952 16.5294ZM83.0651 17.7325C82.9921 16.1446 82.6397 14.738 81.5097 13.5791C80.3839 12.4202 79.0175 12.0575 77.4749 11.9779C75.8851 11.885 71.1198 11.885 69.53 11.9779C67.9917 12.0531 66.6253 12.4158 65.4952 13.5747C64.3651 14.7336 64.0171 16.1402 63.9397 17.7281C63.8495 19.3647 63.8495 24.2701 63.9397 25.9067C64.0128 27.4946 64.3651 28.9012 65.4952 30.0601C66.6253 31.219 67.9874 31.5817 69.53 31.6613C71.1198 31.7542 75.8851 31.7542 77.4749 31.6613C79.0175 31.5862 80.3839 31.2234 81.5097 30.0601C82.6355 28.9012 82.9878 27.4946 83.0651 25.9067C83.1554 24.2701 83.1554 19.3691 83.0651 17.7325ZM81.0112 27.6627C80.6761 28.5297 80.0272 29.1976 79.1808 29.547C77.9132 30.0646 74.9054 29.9451 73.5046 29.9451C72.1038 29.9451 69.0917 30.0601 67.8284 29.547C66.9862 29.202 66.3374 28.5341 65.9979 27.6627C65.4952 26.3579 65.6112 23.2616 65.6112 21.8196C65.6112 20.3776 65.4995 17.2769 65.9979 15.9765C66.3331 15.1095 66.9819 14.4416 67.8284 14.0922C69.096 13.5747 72.1038 13.6941 73.5046 13.6941C74.9054 13.6941 77.9175 13.5791 79.1808 14.0922C80.023 14.4372 80.6718 15.1051 81.0112 15.9765C81.514 17.2814 81.3979 20.3776 81.3979 21.8196C81.3979 23.2616 81.514 26.3623 81.0112 27.6627Z" fill="#393939"/>
<rect x="104.25" y="0.573486" width="42.5" height="42.5" rx="6.25" stroke="#393939" stroke-opacity="0.35" stroke-width="0.5"/>
<g clip-path="url(#clip0_2481_1687)">
<path d="M120.184 30.0731H116.193V17.2211H120.184V30.0731ZM118.186 15.468C116.91 15.468 115.875 14.4109 115.875 13.1348C115.875 12.5218 116.119 11.9339 116.552 11.5004C116.985 11.067 117.573 10.8235 118.186 10.8235C118.799 10.8235 119.387 11.067 119.821 11.5004C120.254 11.9339 120.498 12.5218 120.498 13.1348C120.498 14.4109 119.462 15.468 118.186 15.468ZM135.121 30.0731H131.138V23.8168C131.138 22.3258 131.108 20.4137 129.063 20.4137C126.988 20.4137 126.67 22.0336 126.67 23.7094V30.0731H122.684V17.2211H126.511V18.9742H126.567C127.1 17.9645 128.402 16.8988 130.343 16.8988C134.382 16.8988 135.125 19.5586 135.125 23.0133V30.0731H135.121Z" fill="#393939"/>
</g>
<defs>
<clipPath id="clip0_2481_1687">
<rect width="22" height="22" fill="white" transform="translate(114.5 10.8235)"/>
</clipPath>
</defs>
</svg>
