<svg width="51" height="53" viewBox="0 0 51 53" fill="none" xmlns="http://www.w3.org/2000/svg">
<g clip-path="url(#clip0_2481_1533)">
<path d="M47.477 0H3.51347C2.58199 0.00114618 1.68899 0.373422 1.03033 1.03517C0.371675 1.69693 0.00114082 2.59413 0 3.52998L0 38.8593C0.00114082 39.7951 0.371675 40.6923 1.03033 41.3541C1.68899 42.0158 2.58199 42.3881 3.51347 42.3893H47.477C48.4085 42.3881 49.3015 42.0158 49.9602 41.3541C50.6188 40.6923 50.9894 39.7951 50.9905 38.8593V3.52998C50.9894 2.59413 50.6188 1.69693 49.9602 1.03517C49.3015 0.373422 48.4085 0.00114618 47.477 0ZM49.2385 38.8697C49.2369 39.3385 49.0508 39.7878 48.7208 40.1193C48.3908 40.4509 47.9437 40.6378 47.477 40.6394H3.51347C3.04678 40.6378 2.59967 40.4509 2.26967 40.1193C1.93968 39.7878 1.75358 39.3385 1.75199 38.8697V3.52998C1.75335 3.06096 1.93935 2.61152 2.26937 2.27978C2.59939 1.94805 3.04663 1.76096 3.51347 1.75936H47.477C47.9437 1.76096 48.3908 1.94793 48.7208 2.27948C49.0508 2.61102 49.2369 3.06024 49.2385 3.52912V38.8723V38.8697Z" fill="#7C5368"/>
<path d="M32.5163 51.9755L30.7548 41.3752C30.7208 41.1701 30.6155 40.9838 30.4576 40.8493C30.2998 40.7148 30.0996 40.6409 29.8926 40.6406H21.1008C20.8938 40.6409 20.6936 40.7148 20.5358 40.8493C20.3779 40.9838 20.2726 41.1701 20.2386 41.3752L18.4711 51.9755C18.45 52.1015 18.4565 52.2305 18.4902 52.3537C18.5238 52.4768 18.5837 52.5912 18.6658 52.6887C18.7478 52.7862 18.85 52.8646 18.9653 52.9184C19.0806 52.9723 19.2061 53.0002 19.3333 53.0003H31.6455C31.7729 53.0005 31.8989 52.9727 32.0146 52.919C32.1302 52.8653 32.2329 52.7869 32.3154 52.6893C32.3976 52.5916 32.458 52.4774 32.4927 52.3543C32.5273 52.2312 32.5354 52.102 32.5163 51.9755ZM20.3791 51.2306L21.8449 42.4008H29.1494L30.6151 51.2306H20.3791Z" fill="#7C5368"/>
<path d="M51.0002 33.5703H1.76172V35.3401H51.0002V33.5703Z" fill="#7C5368"/>
<path d="M36.7306 9.1606C36.6486 9.05906 36.5448 8.97748 36.427 8.92197C36.3092 8.86646 36.1804 8.83847 36.0503 8.84008H15.5161L14.929 6.00397C14.889 5.80428 14.7811 5.62481 14.6237 5.49631C14.4664 5.36782 14.2695 5.29831 14.0668 5.2997H11.4259V7.06946H13.3529L16.7224 23.1558C16.7624 23.3555 16.8703 23.5349 17.0276 23.6634C17.1849 23.7919 17.3818 23.8614 17.5846 23.8601H33.412C33.6157 23.8592 33.8128 23.7875 33.97 23.6573C34.1271 23.527 34.2346 23.3462 34.2742 23.1454L36.9116 9.89171C36.9346 9.76391 36.9304 9.63267 36.8992 9.50664C36.868 9.38061 36.8105 9.26267 36.7306 9.1606ZM32.692 22.079H18.2976L15.8834 10.5994H34.9648L32.692 22.079Z" fill="#7C5368"/>
<path d="M9.67458 3.53027C9.15294 3.53027 8.64301 3.68569 8.20928 3.97686C7.77555 4.26803 7.4375 4.68188 7.23788 5.16608C7.03825 5.65029 6.98603 6.18309 7.08779 6.69711C7.18956 7.21113 7.44075 7.6833 7.80961 8.05389C8.17847 8.42448 8.64842 8.67685 9.16004 8.7791C9.67166 8.88134 10.202 8.82887 10.6839 8.62831C11.1658 8.42774 11.5778 8.0881 11.8676 7.65233C12.1574 7.21657 12.3121 6.70424 12.3121 6.18015C12.3107 5.47778 12.0324 4.80457 11.538 4.30792C11.0437 3.81127 10.3737 3.53165 9.67458 3.53027ZM9.67458 7.07065C9.50133 7.07065 9.33196 7.01904 9.18791 6.92233C9.04385 6.82562 8.93157 6.68817 8.86527 6.52735C8.79897 6.36653 8.78162 6.18956 8.81542 6.01884C8.84922 5.84811 8.93265 5.69129 9.05516 5.56821C9.17767 5.44512 9.33376 5.3613 9.50369 5.32734C9.67361 5.29338 9.84974 5.31081 10.0098 5.37742C10.1699 5.44403 10.3067 5.55684 10.4029 5.70158C10.4992 5.84631 10.5506 6.01647 10.5506 6.19054C10.5507 6.30615 10.5281 6.42065 10.4841 6.52748C10.4401 6.63431 10.3756 6.73138 10.2943 6.81313C10.2129 6.89488 10.1163 6.9597 10.0099 7.00389C9.90362 7.04808 9.78965 7.07077 9.67458 7.07065Z" fill="#7C5368"/>
<path d="M19.1848 26.4995L18.4433 22.7937L16.7189 23.1454L17.5949 27.5633C17.6345 27.7641 17.742 27.9449 17.8991 28.0752C18.0563 28.2054 18.2534 28.2771 18.4571 28.278H32.5205V26.4978L19.1848 26.4995Z" fill="#7C5368"/>
<path d="M32.5266 26.5C32.005 26.5 31.4951 26.6554 31.0613 26.9466C30.6276 27.2378 30.2896 27.6516 30.0899 28.1358C29.8903 28.62 29.8381 29.1528 29.9398 29.6668C30.0416 30.1809 30.2928 30.653 30.6617 31.0236C31.0305 31.3942 31.5005 31.6466 32.0121 31.7488C32.5237 31.8511 33.054 31.7986 33.5359 31.598C34.0179 31.3975 34.4298 31.0578 34.7196 30.6221C35.0094 30.1863 35.1641 29.674 35.1641 29.1499C35.1627 28.4475 34.8844 27.7743 34.3901 27.2776C33.8958 26.781 33.2257 26.5014 32.5266 26.5ZM32.5266 30.03C32.3534 30.03 32.184 29.9784 32.04 29.8817C31.8959 29.785 31.7836 29.6475 31.7173 29.4867C31.651 29.3259 31.6337 29.1489 31.6675 28.9782C31.7013 28.8074 31.7847 28.6506 31.9072 28.5275C32.0297 28.4044 32.1858 28.3206 32.3557 28.2867C32.5257 28.2527 32.7018 28.2701 32.8619 28.3367C33.0219 28.4034 33.1588 28.5162 33.255 28.6609C33.3513 28.8056 33.4026 28.9758 33.4026 29.1499C33.4027 29.2655 33.3802 29.38 33.3362 29.4868C33.2922 29.5936 33.2277 29.6907 33.1463 29.7725C33.0649 29.8542 32.9683 29.919 32.862 29.9632C32.7557 30.0074 32.6417 30.0301 32.5266 30.03Z" fill="#7C5368"/>
<path d="M18.4632 26.5C17.9415 26.5 17.4316 26.6554 16.9979 26.9466C16.5641 27.2378 16.2261 27.6516 16.0265 28.1358C15.8268 28.62 15.7746 29.1528 15.8764 29.6668C15.9781 30.1809 16.2293 30.653 16.5982 31.0236C16.967 31.3942 17.437 31.6466 17.9486 31.7488C18.4602 31.8511 18.9905 31.7986 19.4725 31.598C19.9544 31.3975 20.3663 31.0578 20.6561 30.6221C20.9459 30.1863 21.1006 29.674 21.1006 29.1499C21.0993 28.4475 20.8209 27.7743 20.3266 27.2776C19.8323 26.781 19.1622 26.5014 18.4632 26.5ZM18.4632 30.03C18.2899 30.03 18.1205 29.9784 17.9765 29.8817C17.8324 29.785 17.7201 29.6475 17.6538 29.4867C17.5875 29.3259 17.5702 29.1489 17.604 28.9782C17.6378 28.8074 17.7212 28.6506 17.8437 28.5275C17.9662 28.4044 18.1223 28.3206 18.2923 28.2867C18.4622 28.2527 18.6383 28.2701 18.7984 28.3367C18.9585 28.4034 19.0953 28.5162 19.1915 28.6609C19.2878 28.8056 19.3392 28.9758 19.3392 29.1499C19.3393 29.2655 19.3167 29.38 19.2727 29.4868C19.2287 29.5936 19.1642 29.6907 19.0828 29.7725C19.0015 29.8542 18.9048 29.919 18.7985 29.9632C18.6922 30.0074 18.5782 30.0301 18.4632 30.03Z" fill="#7C5368"/>
<path d="M26.3756 10.6003H24.6141V22.9704H26.3756V10.6003Z" fill="#7C5368"/>
<path d="M21.1018 9.65575L19.3442 9.77344L20.2233 23.0254L21.9809 22.9078L21.1018 9.65575Z" fill="#7C5368"/>
<path d="M29.8994 9.65428L29.0217 22.9064L30.7792 23.0239L31.6569 9.77178L29.8994 9.65428Z" fill="#7C5368"/>
<path d="M38.6886 21.1999C38.5736 21.1997 38.4596 21.2224 38.3533 21.2666C38.247 21.3108 38.1503 21.3756 38.069 21.4574C37.9876 21.5391 37.9231 21.6362 37.8791 21.743C37.8351 21.8499 37.8125 21.9644 37.8126 22.08V25.6074H39.5638V22.9575H42.2012V21.1895H38.6878L38.6886 21.1999Z" fill="#7C5368"/>
<path d="M39.3046 21.4488L38.0591 22.7002L41.5781 26.2357L42.8236 24.9843L39.3046 21.4488Z" fill="#7C5368"/>
<path d="M35.1648 13.2502H15.8257V15.02H35.1648V13.2502Z" fill="#7C5368"/>
<path d="M34.2888 17.6698H16.7017V19.4396H34.2888V17.6698Z" fill="#7C5368"/>
</g>
<defs>
<clipPath id="clip0_2481_1533">
<rect width="51" height="53" fill="white"/>
</clipPath>
</defs>
</svg>
