<svg width="32" height="32" viewBox="0 0 32 32" fill="none" xmlns="http://www.w3.org/2000/svg">
<path d="M15.8341 6.97829L15.5157 6.71373C13.8085 5.29483 11.9425 4.54612 10.0596 4.50077C8.00565 4.47231 6.09759 5.23586 4.65658 6.69945L15.8341 6.97829ZM15.8341 6.97829L16.1534 6.71495M15.8341 6.97829L16.1534 6.71495M16.1534 6.71495C18.4906 4.78767 21.1602 4.11507 23.6445 4.7888C26.1916 5.48288 28.2061 7.52845 28.8912 10.1292C29.6488 13.0066 28.6846 16.1384 26.1434 18.7226L26.1433 18.7226L16.4552 28.5759C16.4552 28.5759 16.4551 28.5759 16.4551 28.576C16.2803 28.753 16.0557 28.8395 15.8326 28.8395C15.6095 28.8395 15.3848 28.753 15.21 28.576C15.21 28.5759 15.2099 28.5759 15.2099 28.5759L5.5218 18.7226L5.52177 18.7226M16.1534 6.71495L5.52177 18.7226M5.52177 18.7226C1.31357 14.4432 1.9621 9.43993 4.65651 6.69953L5.52177 18.7226Z" stroke="#393939"/>
</svg>
