<svg width="61" height="54" viewBox="0 0 61 54" fill="none" xmlns="http://www.w3.org/2000/svg">
<g clip-path="url(#clip0_2481_1516)">
<path d="M61 31.7099V19.2402C61 18.816 60.8321 18.4091 60.533 18.1086C60.2339 17.8081 59.828 17.6386 59.4043 17.6372H47.9038C46.254 12.5285 42.8327 8.17947 38.2587 5.37691C33.6846 2.57435 28.2598 1.50327 22.9655 2.3574C17.6713 3.21154 12.8571 5.93449 9.39377 10.0337C5.93046 14.133 4.0467 19.3378 4.08323 24.7069C4.08301 26.2877 4.24731 27.8643 4.57346 29.4111H2.03276C1.81156 29.4111 1.59254 29.4547 1.38818 29.5395C1.18383 29.6242 0.998148 29.7484 0.841742 29.905C0.685336 30.0616 0.561268 30.2475 0.476621 30.4521C0.391975 30.6567 0.348408 30.876 0.348408 31.0975C0.349086 31.9506 0.416369 32.8023 0.549643 33.6449C0.269934 33.9563 0.115207 34.3604 0.115259 34.7792C0.115225 35.6862 0.189646 36.5916 0.33777 37.4864C0.119099 37.7793 0.000649368 38.1351 1.3697e-05 38.5009C-0.0116344 41.7556 0.943787 44.9403 2.74477 47.6499C4.54576 50.3596 7.11094 52.4717 10.1141 53.7177C10.32 53.8035 10.5409 53.8476 10.7639 53.8473H23.6447C23.8678 53.8476 24.0886 53.8035 24.2945 53.7177C27.6931 52.3109 30.5182 49.7972 32.3129 46.5833C36.9866 45.3257 41.1312 42.594 44.1326 38.7929V46.4767C43.4897 46.6866 42.9122 47.0599 42.4565 47.5601C42.0008 48.0602 41.6824 48.6702 41.5325 49.3303H40.794C40.3992 49.3308 40.0207 49.4881 39.7415 49.7676C39.4623 50.0472 39.3052 50.4262 39.3047 50.8215V52.5079C39.3052 52.9032 39.4623 53.2822 39.7415 53.5618C40.0207 53.8413 40.3992 53.9986 40.794 53.9991H58.712C59.1068 53.9986 59.4853 53.8413 59.7645 53.5618C60.0437 53.2822 60.2008 52.9032 60.2013 52.5079V50.8215C60.2008 50.4262 60.0437 50.0472 59.7645 49.7676C59.4853 49.4881 59.1068 49.3308 58.712 49.3303H57.9771C57.8271 48.6702 57.5088 48.0602 57.053 47.5601C56.5973 47.0599 56.0198 46.6866 55.3769 46.4767V38.2089C56.9386 37.9849 58.3672 37.2043 59.4002 36.0104C60.4332 34.8165 61.0012 33.2895 61 31.7099ZM32.2686 31.1969C32.2641 31.8255 32.2188 32.4532 32.1329 33.0759H2.273C2.18716 32.4532 2.14185 31.8255 2.13736 31.1969H32.2686ZM23.6234 52.0552H10.7825C9.03669 51.3287 7.44872 50.2691 6.10711 48.9354H28.3024C26.961 50.2703 25.3731 51.3312 23.627 52.0588L23.6234 52.0552ZM29.8289 47.146H4.57435C2.77296 44.6526 1.79814 41.6563 1.7872 38.579H22.5171C22.7541 38.579 22.9814 38.4847 23.149 38.3169C23.3165 38.1491 23.4107 37.9216 23.4107 37.6843C23.4107 37.447 23.3165 37.2194 23.149 37.0517C22.9814 36.8839 22.7541 36.7896 22.5171 36.7896H2.03896C1.95038 36.1504 1.90388 35.5061 1.89978 34.8609H32.507C32.5029 35.5061 32.4565 36.1504 32.3679 36.7896H27.2829C27.0459 36.7896 26.8186 36.8839 26.651 37.0517C26.4835 37.2194 26.3893 37.447 26.3893 37.6843C26.3893 37.9216 26.4835 38.1491 26.651 38.3169C26.8186 38.4847 27.0459 38.579 27.2829 38.579H32.6232C32.6125 41.6577 31.637 44.6554 29.8343 47.1495L29.8289 47.146ZM33.3253 44.3945C34.04 42.5099 34.4056 40.5106 34.4042 38.4947C34.4042 38.1284 34.286 37.7719 34.0673 37.4784C34.2154 36.5836 34.2898 35.6782 34.2898 34.7712C34.2898 34.3524 34.1351 33.9483 33.8554 33.6369C33.9883 32.7949 34.0553 31.9438 34.0558 31.0913C34.0558 31.0718 34.0558 31.0522 34.0558 31.0327C35.6033 29.1745 36.4172 26.8131 36.3435 24.3948C36.2698 21.9765 35.3137 19.6691 33.6559 17.9088C33.4923 17.7364 33.267 17.6361 33.0295 17.63C32.792 17.624 32.5618 17.7126 32.3896 17.8764C32.2174 18.0403 32.1172 18.2659 32.1111 18.5037C32.1051 18.7415 32.1936 18.9719 32.3572 19.1443C33.6597 20.5263 34.4356 22.3228 34.549 24.2195C34.6624 26.1162 34.1063 27.9925 32.9778 29.5203C32.7869 29.4462 32.5841 29.408 32.3794 29.4075H20.0571C19.0825 28.0642 18.5469 26.4519 18.5237 24.7918C18.5005 23.1316 18.991 21.5049 19.9277 20.1349C20.8644 18.7649 22.2015 17.7185 23.7557 17.1395C25.3098 16.5604 27.0048 16.4769 28.6082 16.9005C28.7223 16.933 28.8418 16.9425 28.9596 16.9283C29.0774 16.9141 29.1912 16.8766 29.2944 16.8179C29.3975 16.7592 29.488 16.6805 29.5604 16.5864C29.6329 16.4923 29.6859 16.3847 29.7164 16.2699C29.7469 16.1551 29.7543 16.0354 29.738 15.9177C29.7218 15.8 29.6824 15.6867 29.6219 15.5845C29.5615 15.4822 29.4814 15.3931 29.3862 15.3221C29.291 15.2512 29.1826 15.2 29.0674 15.1715C27.2118 14.6909 25.2563 14.7634 23.4412 15.3801C21.6261 15.9968 20.0305 17.1309 18.8502 18.6429C17.6698 20.155 16.9563 21.9793 16.7971 23.8918C16.638 25.8042 17.0402 27.7216 17.9543 29.4084H6.40408C5.70246 26.3634 5.69319 23.1994 6.37694 20.1503C7.0607 17.1011 8.42 14.2448 10.3544 11.7923C12.2888 9.33983 14.7489 7.35389 17.5529 5.98122C20.3569 4.60856 23.4331 3.88426 26.5542 3.86184C30.8185 3.87547 34.9747 5.20557 38.4564 7.67077C41.938 10.136 44.5755 13.6163 46.0093 17.6372H40.1043C39.6806 17.6386 39.2748 17.8081 38.9757 18.1086C38.6766 18.4091 38.5086 18.816 38.5086 19.2402V31.709C38.508 33.0218 38.9004 34.3046 39.635 35.392C40.3696 36.4794 41.4128 37.3214 42.63 37.8094C40.2051 40.8314 36.9847 43.1143 33.3324 44.4007L33.3253 44.3945ZM45.0209 48.1303C45.3753 48.152 45.7159 48.276 46.0015 48.4874C46.287 48.6988 46.5053 48.9885 46.6299 49.3215H43.4119C43.5378 48.9889 43.7573 48.6999 44.0438 48.4896C44.3303 48.2793 44.6715 48.1567 45.0262 48.1365L45.0209 48.1303ZM45.9207 46.4741V38.2089C47.388 38.0027 48.7408 37.3006 49.7548 36.2189C50.7684 37.2998 52.1206 38.0013 53.5871 38.2071V46.4732C52.9442 46.683 52.3666 47.0563 51.9109 47.5564C51.4552 48.0566 51.1368 48.6666 50.987 49.3268H48.5199C48.37 48.6669 48.0517 48.0571 47.5962 47.5571C47.1406 47.0571 46.5633 46.684 45.9207 46.4741ZM48.9614 52.2106H41.0928V51.1171H48.9605L48.9614 52.2106ZM58.4159 51.1171V52.2106H50.7477V51.1171H58.4159ZM56.0915 49.3277H52.8735C52.9799 48.9836 53.1935 48.6828 53.483 48.469C53.7725 48.2553 54.1228 48.14 54.4825 48.14C54.8422 48.14 55.1924 48.2553 55.482 48.469C55.7715 48.6828 55.9851 48.9836 56.0915 49.3277ZM54.4807 36.4852C53.7772 36.4843 53.0828 36.3256 52.4486 36.0207C51.8144 35.7158 51.2565 35.2725 50.8159 34.7233C51.2963 33.7924 51.5465 32.7596 51.5455 31.7117V28.6699C51.5455 28.4327 51.4514 28.2051 51.2838 28.0373C51.1162 27.8695 50.8889 27.7753 50.6519 27.7753C50.4149 27.7753 50.1876 27.8695 50.02 28.0373C49.8525 28.2051 49.7583 28.4327 49.7583 28.6699V31.7099C49.7583 32.9665 49.2598 34.1716 48.3723 35.0602C47.4849 35.9487 46.2812 36.4479 45.0262 36.4479C43.7711 36.4479 42.5675 35.9487 41.6801 35.0602C40.7926 34.1716 40.2941 32.9665 40.2941 31.7099V19.4266H49.7583V23.8983C49.7583 24.1356 49.8525 24.3631 50.02 24.5309C50.1876 24.6987 50.4149 24.793 50.6519 24.793C50.8889 24.793 51.1162 24.6987 51.2838 24.5309C51.4514 24.3631 51.5455 24.1356 51.5455 23.8983V19.4266H59.2128V31.7099C59.2166 32.9711 58.7204 34.1823 57.8332 35.0775C56.946 35.9728 55.7403 36.4791 54.4807 36.4852Z" fill="#7C5368"/>
<path d="M7.21434 8.01222C6.06899 7.65719 5.97945 7.56843 5.61864 6.41456C5.54425 6.17416 5.39495 5.96391 5.1926 5.81459C4.99026 5.66527 4.74549 5.58472 4.49412 5.58472C4.24275 5.58472 3.99798 5.66527 3.79564 5.81459C3.59329 5.96391 3.44399 6.17416 3.3696 6.41456C3.015 7.5631 2.92635 7.65275 1.77833 8.01222C1.53869 8.08721 1.32924 8.23687 1.18052 8.43941C1.03181 8.64194 0.951599 8.88675 0.951599 9.13813C0.951599 9.3895 1.03181 9.63432 1.18052 9.83685C1.32924 10.0394 1.53869 10.189 1.77833 10.264C2.92369 10.6191 3.01322 10.7078 3.3696 11.8617C3.44399 12.1021 3.59329 12.3123 3.79564 12.4617C3.99798 12.611 4.24275 12.6915 4.49412 12.6915C4.74549 12.6915 4.99026 12.611 5.1926 12.4617C5.39495 12.3123 5.54425 12.1021 5.61864 11.8617C5.97324 10.7132 6.06189 10.6235 7.21434 10.264C7.45398 10.189 7.66343 10.0394 7.81215 9.83685C7.96087 9.63432 8.04107 9.3895 8.04107 9.13813C8.04107 8.88675 7.96087 8.64194 7.81215 8.43941C7.66343 8.23687 7.45398 8.08721 7.21434 8.01222ZM4.499 9.95072C4.29357 9.62076 4.01475 9.3428 3.6843 9.13857C4.0135 8.93396 4.29109 8.65603 4.49545 8.32643C4.69984 8.65601 4.97742 8.93393 5.3066 9.13857C4.97869 9.34361 4.70235 9.62151 4.499 9.95072Z" fill="#7C5368"/>
<path d="M57.9566 11.3084C56.8112 10.9533 56.7217 10.8646 56.3609 9.71071C56.2865 9.47031 56.1372 9.26006 55.9349 9.11074C55.7325 8.96142 55.4877 8.88086 55.2364 8.88086C54.985 8.88086 54.7403 8.96142 54.5379 9.11074C54.3356 9.26006 54.1863 9.47031 54.1119 9.71071C53.7573 10.8593 53.6686 10.9489 52.5206 11.3084C52.2809 11.3833 52.0715 11.533 51.9228 11.7356C51.7741 11.9381 51.6938 12.1829 51.6938 12.4343C51.6938 12.6857 51.7741 12.9305 51.9228 13.133C52.0715 13.3355 52.2809 13.4852 52.5206 13.5602C53.6659 13.9152 53.7555 14.004 54.1163 15.1578C54.1907 15.3982 54.34 15.6085 54.5423 15.7578C54.7447 15.9071 54.9894 15.9877 55.2408 15.9877C55.4922 15.9877 55.7369 15.9071 55.9393 15.7578C56.1416 15.6085 56.2909 15.3982 56.3653 15.1578C56.7199 14.0093 56.8086 13.9152 57.961 13.5602C58.2007 13.4852 58.4101 13.3355 58.5588 13.133C58.7075 12.9305 58.7878 12.6857 58.7878 12.4343C58.7878 12.1829 58.7075 11.9381 58.5588 11.7356C58.4101 11.533 58.2007 11.3833 57.961 11.3084H57.9566ZM55.2404 13.2469C55.036 12.9173 54.7584 12.6393 54.4292 12.4347C54.7584 12.2301 55.036 11.9522 55.2404 11.6226C55.4447 11.9522 55.7223 12.2301 56.0515 12.4347C55.7228 12.6393 55.4455 12.9169 55.2413 13.246L55.2404 13.2469Z" fill="#7C5368"/>
<path d="M49.2911 2.9175C47.8506 2.46838 47.6954 2.31483 47.2522 0.870723C47.174 0.618404 47.0173 0.397739 46.8049 0.24102C46.5925 0.0843016 46.3356 -0.000244141 46.0718 -0.000244141C45.808 -0.000244141 45.551 0.0843016 45.3386 0.24102C45.1263 0.397739 44.9695 0.618404 44.8914 0.870723C44.4429 2.31483 44.2904 2.46838 42.8525 2.9175C42.6029 2.99837 42.3853 3.15635 42.2309 3.36877C42.0766 3.58118 41.9935 3.8371 41.9935 4.09977C41.9935 4.36244 42.0766 4.61836 42.2309 4.83077C42.3853 5.04318 42.6029 5.20117 42.8525 5.28204C44.293 5.73204 44.4482 5.88471 44.8914 7.32882C44.9695 7.58114 45.1263 7.8018 45.3386 7.95852C45.551 8.11524 45.808 8.19978 46.0718 8.19978C46.3356 8.19978 46.5925 8.11524 46.8049 7.95852C47.0173 7.8018 47.174 7.58114 47.2522 7.32882C47.7007 5.88382 47.8541 5.73116 49.2911 5.28115C49.5407 5.20028 49.7583 5.0423 49.9127 4.82988C50.067 4.61747 50.1501 4.36155 50.1501 4.09888C50.1501 3.83621 50.067 3.58029 49.9127 3.36788C49.7583 3.15547 49.5407 2.99837 49.2911 2.9175ZM46.0696 5.456C45.7758 4.86939 45.3007 4.39341 44.715 4.09888C45.3008 3.80446 45.7759 3.32845 46.0696 2.74176C46.3633 3.32841 46.8384 3.8044 47.4241 4.09888C46.8385 4.39346 46.3634 4.86943 46.0696 5.456Z" fill="#7C5368"/>
</g>
<defs>
<clipPath id="clip0_2481_1516">
<rect width="61" height="54" fill="white"/>
</clipPath>
</defs>
</svg>
