<svg width="28" height="26" viewBox="0 0 28 26" fill="none" xmlns="http://www.w3.org/2000/svg">
<path d="M14.0127 3.01674L13.6902 2.74876C11.9609 1.31154 10.0708 0.553166 8.16364 0.507232C6.08318 0.478408 4.15049 1.25181 2.69088 2.7343L14.0127 3.01674ZM14.0127 3.01674L14.3361 2.75M14.0127 3.01674L14.3361 2.75M14.3361 2.75C16.7035 0.797836 19.4076 0.116553 21.9239 0.79898C24.5039 1.50202 26.5444 3.57401 27.2383 6.20833C28.0057 9.12292 27.0291 12.2951 24.455 14.9126L24.455 14.9127L14.6418 24.8931C14.6418 24.8932 14.6418 24.8932 14.6417 24.8933C14.4647 25.0726 14.2371 25.1602 14.0111 25.1602C13.7852 25.1602 13.5576 25.0726 13.3806 24.8933C13.3805 24.8932 13.3805 24.8932 13.3804 24.8931L3.56726 14.9127L3.56724 14.9126M14.3361 2.75L3.56724 14.9126M3.56724 14.9126C-0.695289 10.5781 -0.0383911 5.51016 2.69081 2.73438L3.56724 14.9126Z" stroke="#111928"/>
</svg>
